{
    "asset" : {
        "generator" : "Khronos glTF Blender I/O v1.8.19",
        "version" : "2.0"
    },
    "scene" : 0,
    "scenes" : [
        {
            "name" : "Scene",
            "nodes" : [
                7
            ]
        }
    ],
    "nodes" : [
        {
            "mesh" : 0,
            "name" : "pasted__Object_16"
        },
        {
            "children" : [
                0
            ],
            "name" : "pasted__Maple Leaf B_6"
        },
        {
            "mesh" : 1,
            "name" : "pasted__Object_18"
        },
        {
            "children" : [
                2
            ],
            "name" : "pasted__Petiole B_7"
        },
        {
            "children" : [
                1,
                3
            ],
            "name" : "pasted__GLTF_SceneRootNode",
            "rotation" : [
                0.7071068286895752,
                0,
                0,
                0.7071067094802856
            ]
        },
        {
            "children" : [
                4
            ],
            "name" : "pasted__root"
        },
        {
            "children" : [
                5
            ],
            "name" : "pasted__Sketchfab_model",
            "rotation" : [
                1,
                0,
                0,
                7.549790126404332e-08
            ],
            "scale" : [
                100,
                100.00001525878906,
                100.00001525878906
            ]
        },
        {
            "children" : [
                6
            ],
            "name" : "group",
            "rotation" : [
                0.7071068286895752,
                0,
                0,
                0.7071067094802856
            ],
            "scale" : [
                0.009999999776482582,
                0.009999999776482582,
                0.009999999776482582
            ],
            "translation" : [
                -0.01354203000664711,
                -0.3576030135154724,
                0.14790640771389008
            ]
        }
    ],
    "materials" : [
        {
            "doubleSided" : true,
            "name" : "pasted__Maple_B",
            "pbrMetallicRoughness" : {
                "baseColorTexture" : {
                    "index" : 0
                },
                "metallicFactor" : 0,
                "roughnessFactor" : 0.858578622341156
            }
        },
        {
            "doubleSided" : true,
            "name" : "pasted__Petiole",
            "pbrMetallicRoughness" : {
                "baseColorTexture" : {
                    "index" : 1
                },
                "metallicFactor" : 0,
                "roughnessFactor" : 0.7599999904632568
            }
        }
    ],
    "meshes" : [
        {
            "name" : "Mesh",
            "primitives" : [
                {
                    "attributes" : {
                        "POSITION" : 0,
                        "NORMAL" : 1,
                        "TEXCOORD_0" : 2
                    },
                    "indices" : 3,
                    "material" : 0
                }
            ]
        },
        {
            "name" : "Mesh.002",
            "primitives" : [
                {
                    "attributes" : {
                        "POSITION" : 4,
                        "NORMAL" : 5,
                        "TEXCOORD_0" : 6
                    },
                    "indices" : 7,
                    "material" : 1
                }
            ]
        }
    ],
    "textures" : [
        {
            "sampler" : 0,
            "source" : 0
        },
        {
            "sampler" : 0,
            "source" : 1
        }
    ],
    "images" : [
        {
            "bufferView" : 4,
            "mimeType" : "image/png",
            "name" : "Maple_B_baseColor"
        },
        {
            "bufferView" : 9,
            "mimeType" : "image/jpeg",
            "name" : "Petiole_baseColor"
        }
    ],
    "accessors" : [
        {
            "bufferView" : 0,
            "componentType" : 5126,
            "count" : 544,
            "max" : [
                0.08960628509521484,
                0.3712603449821472,
                -0.1536014974117279
            ],
            "min" : [
                -0.06252222508192062,
                0.3481658697128296,
                -0.30552107095718384
            ],
            "type" : "VEC3"
        },
        {
            "bufferView" : 1,
            "componentType" : 5126,
            "count" : 544,
            "type" : "VEC3"
        },
        {
            "bufferView" : 2,
            "componentType" : 5126,
            "count" : 544,
            "type" : "VEC2"
        },
        {
            "bufferView" : 3,
            "componentType" : 5123,
            "count" : 780,
            "type" : "SCALAR"
        },
        {
            "bufferView" : 5,
            "componentType" : 5126,
            "count" : 33,
            "max" : [
                0.016070712357759476,
                0.36198890209198,
                0.009708300232887268
            ],
            "min" : [
                0.0006979480385780334,
                0.34394556283950806,
                -0.16655442118644714
            ],
            "type" : "VEC3"
        },
        {
            "bufferView" : 6,
            "componentType" : 5126,
            "count" : 33,
            "type" : "VEC3"
        },
        {
            "bufferView" : 7,
            "componentType" : 5126,
            "count" : 33,
            "type" : "VEC2"
        },
        {
            "bufferView" : 8,
            "componentType" : 5123,
            "count" : 108,
            "type" : "SCALAR"
        }
    ],
    "bufferViews" : [
        {
            "buffer" : 0,
            "byteLength" : 6528,
            "byteOffset" : 0
        },
        {
            "buffer" : 0,
            "byteLength" : 6528,
            "byteOffset" : 6528
        },
        {
            "buffer" : 0,
            "byteLength" : 4352,
            "byteOffset" : 13056
        },
        {
            "buffer" : 0,
            "byteLength" : 1560,
            "byteOffset" : 17408
        },
        {
            "buffer" : 0,
            "byteLength" : 379819,
            "byteOffset" : 18968
        },
        {
            "buffer" : 0,
            "byteLength" : 396,
            "byteOffset" : 398788
        },
        {
            "buffer" : 0,
            "byteLength" : 396,
            "byteOffset" : 399184
        },
        {
            "buffer" : 0,
            "byteLength" : 264,
            "byteOffset" : 399580
        },
        {
            "buffer" : 0,
            "byteLength" : 216,
            "byteOffset" : 399844
        },
        {
            "buffer" : 0,
            "byteLength" : 726062,
            "byteOffset" : 400060
        }
    ],
    "samplers" : [
        {
            "magFilter" : 9729,
            "minFilter" : 9987
        }
    ],
    "buffers" : [
        {
            "byteLength" : 1126124,
            "uri" : "data:application/octet-stream;base64,"
        }
    ]
}
