{
    "asset" : {
        "generator" : "Khronos glTF Blender I/O v1.8.19",
        "version" : "2.0"
    },
    "scene" : 0,
    "scenes" : [
        {
            "name" : "Scene",
            "nodes" : [
                0
            ]
        }
    ],
    "nodes" : [
        {
            "mesh" : 0,
            "name" : "Maple_leaf:Mesh",
            "rotation" : [
                0.7071068286895752,
                0,
                0,
                0.7071067094802856
            ],
            "scale" : [
                0.009999999776482582,
                0.009999999776482582,
                0.009999999776482582
            ],
            "translation" : [
                -0.6489802598953247,
                0.022564103826880455,
                -0.29943907260894775
            ]
        }
    ],
    "materials" : [
        {
            "doubleSided" : true,
            "name" : "lambert1",
            "normalTexture" : {
                "index" : 0
            },
            "pbrMetallicRoughness" : {
                "baseColorTexture" : {
                    "index" : 1
                },
                "metallicFactor" : 0,
                "roughnessFactor" : 0.5527864098548889
            }
        }
    ],
    "meshes" : [
        {
            "name" : "Mesh.010",
            "primitives" : [
                {
                    "attributes" : {
                        "POSITION" : 0,
                        "NORMAL" : 1,
                        "TEXCOORD_0" : 2
                    },
                    "indices" : 3,
                    "material" : 0
                }
            ]
        }
    ],
    "textures" : [
        {
            "sampler" : 0,
            "source" : 0
        },
        {
            "sampler" : 0,
            "source" : 1
        }
    ],
    "images" : [
        {
            "bufferView" : 4,
            "mimeType" : "image/jpeg",
            "name" : "leaf_type1_NormalMap"
        },
        {
            "bufferView" : 5,
            "mimeType" : "image/jpeg",
            "name" : "Leaf_type1"
        }
    ],
    "accessors" : [
        {
            "bufferView" : 0,
            "componentType" : 5126,
            "count" : 2822,
            "max" : [
                96.03860473632812,
                44.772159576416016,
                2.6360960006713867
            ],
            "min" : [
                38.34250259399414,
                -15.561115264892578,
                1.2360960245132446
            ],
            "type" : "VEC3"
        },
        {
            "bufferView" : 1,
            "componentType" : 5126,
            "count" : 2822,
            "type" : "VEC3"
        },
        {
            "bufferView" : 2,
            "componentType" : 5126,
            "count" : 2822,
            "type" : "VEC2"
        },
        {
            "bufferView" : 3,
            "componentType" : 5123,
            "count" : 14718,
            "type" : "SCALAR"
        }
    ],
    "bufferViews" : [
        {
            "buffer" : 0,
            "byteLength" : 33864,
            "byteOffset" : 0
        },
        {
            "buffer" : 0,
            "byteLength" : 33864,
            "byteOffset" : 33864
        },
        {
            "buffer" : 0,
            "byteLength" : 22576,
            "byteOffset" : 67728
        },
        {
            "buffer" : 0,
            "byteLength" : 29436,
            "byteOffset" : 90304
        },
        {
            "buffer" : 0,
            "byteLength" : 638159,
            "byteOffset" : 119740
        },
        {
            "buffer" : 0,
            "byteLength" : 1495958,
            "byteOffset" : 757900
        }
    ],
    "samplers" : [
        {
            "magFilter" : 9729,
            "minFilter" : 9987
        }
    ],
    "buffers" : [
        {
            "byteLength" : 2253860,
            "uri" : "data:application/octet-stream;base64,"
        }
    ]
}
