{
    "asset" : {
        "generator" : "Khronos glTF Blender I/O v1.8.19",
        "version" : "2.0"
    },
    "scene" : 0,
    "scenes" : [
        {
            "name" : "Scene",
            "nodes" : [
                0
            ]
        }
    ],
    "nodes" : [
        {
            "mesh" : 0,
            "name" : "Circle.355",
            "scale" : [
                1.0000000656873453e-05,
                1.0000000656873453e-05,
                1.0000000656873453e-05
            ],
            "translation" : [
                0.0073164403438568115,
                0.09934820234775543,
                -0.038526084274053574
            ]
        }
    ],
    "materials" : [
        {
            "doubleSided" : true,
            "name" : "lambert1.002",
            "pbrMetallicRoughness" : {
                "baseColorTexture" : {
                    "index" : 0
                },
                "metallicFactor" : 0,
                "roughnessFactor" : 0.5527864098548889
            }
        }
    ],
    "meshes" : [
        {
            "name" : "Mesh.003",
            "primitives" : [
                {
                    "attributes" : {
                        "POSITION" : 0,
                        "NORMAL" : 1,
                        "TEXCOORD_0" : 2
                    },
                    "indices" : 3,
                    "material" : 0
                }
            ]
        }
    ],
    "textures" : [
        {
            "sampler" : 0,
            "source" : 0
        }
    ],
    "images" : [
        {
            "bufferView" : 4,
            "mimeType" : "image/jpeg",
            "name" : "DefaultMaterial_albedo"
        }
    ],
    "accessors" : [
        {
            "bufferView" : 0,
            "componentType" : 5126,
            "count" : 13855,
            "max" : [
                12142.3125,
                9130.8056640625,
                18375.783203125
            ],
            "min" : [
                -16275.8125,
                -10051.8056640625,
                -9934.341796875
            ],
            "type" : "VEC3"
        },
        {
            "bufferView" : 1,
            "componentType" : 5126,
            "count" : 13855,
            "type" : "VEC3"
        },
        {
            "bufferView" : 2,
            "componentType" : 5126,
            "count" : 13855,
            "type" : "VEC2"
        },
        {
            "bufferView" : 3,
            "componentType" : 5123,
            "count" : 51060,
            "type" : "SCALAR"
        }
    ],
    "bufferViews" : [
        {
            "buffer" : 0,
            "byteLength" : 166260,
            "byteOffset" : 0
        },
        {
            "buffer" : 0,
            "byteLength" : 166260,
            "byteOffset" : 166260
        },
        {
            "buffer" : 0,
            "byteLength" : 110840,
            "byteOffset" : 332520
        },
        {
            "buffer" : 0,
            "byteLength" : 102120,
            "byteOffset" : 443360
        },
        {
            "buffer" : 0,
            "byteLength" : 1267583,
            "byteOffset" : 545480
        }
    ],
    "samplers" : [
        {
            "magFilter" : 9729,
            "minFilter" : 9987
        }
    ],
    "buffers" : [
        {
            "byteLength" : 1813064,
            "uri" : "data:application/octet-stream;base64,"
        }
    ]
}
